<!--?xml version="1.0" standalone="no"?-->
              <svg id="sw-js-blob-svg" viewBox="0 0 100 100" xmlns="http://www.w3.org/2000/svg" version="1.1">
                    <defs> 
                        <linearGradient id="sw-gradient" x1="0" x2="1" y1="1" y2="0">
                            <stop id="stop1" stop-color="rgba(55, 248, 198.967, 1)" offset="0%"></stop>
                            <stop id="stop2" stop-color="rgba(117.587, 52.611, 244.826, 1)" offset="100%"></stop>
                        </linearGradient>
                    </defs>
                <path fill="url(#sw-gradient)" d="M19.4,-28.6C24.7,-26.7,28.4,-20.7,32.7,-14.1C36.9,-7.5,41.9,-0.4,42.2,7C42.5,14.3,38.3,21.9,32.1,26.3C26,30.8,17.9,32,10.5,32.7C3.2,33.4,-3.4,33.6,-9.1,31.7C-14.9,29.7,-19.9,25.6,-25.7,21.1C-31.6,16.5,-38.3,11.5,-41.4,4.6C-44.6,-2.4,-44.2,-11.2,-41,-19C-37.8,-26.7,-31.8,-33.5,-24.5,-34.4C-17.2,-35.4,-8.6,-30.7,-0.8,-29.4C7,-28.2,14.1,-30.5,19.4,-28.6Z" width="100%" height="100%" transform="translate(50 50)" stroke-width="0" style="transition: all 0.3s ease 0s;"></path>
              </svg>