<svg xmlns="http://www.w3.org/2000/svg" version="1.1" xmlns:xlink="http://www.w3.org/1999/xlink" xmlns:svgjs="http://svgjs.dev/svgjs" width="1440" height="560" preserveAspectRatio="none" viewBox="0 0 1440 560"><g mask="url(&quot;#SvgjsMask1000&quot;)" fill="none"><rect width="1440" height="560" x="0" y="0" fill="#0e2a47"></rect><path d="M 0,131 C 57.6,146.4 172.8,211 288,208 C 403.2,205 460.8,120.6 576,116 C 691.2,111.4 748.8,182 864,185 C 979.2,188 1036.8,128.4 1152,131 C 1267.2,133.6 1382.4,184.6 1440,198L1440 560L0 560z" fill="#184a7e"></path><path d="M 0,466 C 96,435.4 288,316.2 480,313 C 672,309.8 768,449.8 960,450 C 1152,450.2 1344,341.2 1440,314L1440 560L0 560z" fill="#2264ab"></path></g><defs><mask id="SvgjsMask1000"><rect width="1440" height="560" fill="#ffffff"></rect></mask></defs></svg>